# xmcd
#
# Track frame offsets:
#	150
#	19283
#	48357
#	81770
#	100831
#	123825
#	152309
#	164347
#	191454
#
# Disc length: 4218 seconds
#
# Revision: 1
# Processed by: cddbd v1.5.2PL0 Copyright (c) Steve Scherf et al.
# Submitted via: EZCDAudioConverter 2.1.7.1
#
DISCID=61107809
DTITLE=V/A - Real World Notes V10
DYEAR=1900
DGENRE=
TTITLE0=Spaccanapoli - Siente Munacie (Listen Munaciello)
TTITLE1=Peter Gabriel - Downside-Up [Instrumental]
TTITLE2=Joi - Don't Cha Know That
TTITLE3=Telek - Midal
TTITLE4=U-Cef - Aalash Kwawna
TTITLE5=Nusrat Fateh Ali Khan - Data Teira Durbar (Master In Your Court)
TTITLE6=Barbara Luna - Grito De Milonga
TTITLE7=Gopal Shankar Misra - Mishra Pilu [Extract]
TTITLE8=Various Artist - Ecd Track09
EXTD=
EXTT0=
EXTT1=
EXTT2=
EXTT3=
EXTT4=
EXTT5=
EXTT6=
EXTT7=
EXTT8=
PLAYORDER=
